<?xml version="1.0" encoding="UTF-8" standalone="no"?><svg xmlns="http://www.w3.org/2000/svg" xmlns:xlink="http://www.w3.org/1999/xlink" contentScriptType="application/ecmascript" contentStyleType="text/css" height="1385px" preserveAspectRatio="none" style="width:943px;height:1385px;" version="1.1" viewBox="0 0 943 1385" width="943px" zoomAndPan="magnify"><defs><filter height="300%" id="f13xyqvgdmar6t" width="300%" x="-1" y="-1"><feGaussianBlur result="blurOut" stdDeviation="2.0"/><feColorMatrix in="blurOut" result="blurOut2" type="matrix" values="0 0 0 0 0 0 0 0 0 0 0 0 0 0 0 0 0 0 .4 0"/><feOffset dx="4.0" dy="4.0" in="blurOut2" result="blurOut3"/><feBlend in="SourceGraphic" in2="blurOut3" mode="normal"/></filter></defs><g><text fill="#000000" font-family="sans-serif" font-size="18" lengthAdjust="spacingAndGlyphs" textLength="115" x="420" y="16.708">Sched it'Easy</text><!--MD5=[5c1b5e1ffeff9a5bb7fa8b3e78733260]
cluster ScheditEasy--><rect fill="#FFFFFF" filter="url(#f13xyqvgdmar6t)" height="1264" style="stroke: #000000; stroke-width: 1.5;" width="683" x="246" y="110.9531"/><text fill="#000000" font-family="sans-serif" font-size="14" font-weight="bold" lengthAdjust="spacingAndGlyphs" textLength="95" x="540" y="125.9482">ScheditEasy</text><!--MD5=[4c4031d65799c0eb27d7de7e21adcf49]
cluster account_management--><polygon fill="#FFFFFF" filter="url(#f13xyqvgdmar6t)" points="271,307.9531,449,307.9531,456,330.25,459,330.25,459,589.9531,271,589.9531,271,307.9531" style="stroke: #000000; stroke-width: 1.5;"/><line style="stroke: #000000; stroke-width: 1.5;" x1="271" x2="456" y1="330.25" y2="330.25"/><text fill="#000000" font-family="sans-serif" font-size="14" font-weight="bold" lengthAdjust="spacingAndGlyphs" textLength="172" x="275" y="322.9482">account_management</text><!--MD5=[3cfdc5dd072451845c56d5abc07c10c0]
cluster room_management--><polygon fill="#FFFFFF" filter="url(#f13xyqvgdmar6t)" points="255,137.9531,411,137.9531,418,160.25,475,160.25,475,299.9531,255,299.9531,255,137.9531" style="stroke: #000000; stroke-width: 1.5;"/><line style="stroke: #000000; stroke-width: 1.5;" x1="255" x2="418" y1="160.25" y2="160.25"/><text fill="#000000" font-family="sans-serif" font-size="14" font-weight="bold" lengthAdjust="spacingAndGlyphs" textLength="150" x="259" y="152.9482">room_management</text><!--MD5=[f1a183be54fab24e33c61903402df10d]
cluster EDT_Management--><polygon fill="#FFFFFF" filter="url(#f13xyqvgdmar6t)" points="254,597.9531,398,597.9531,405,620.25,921,620.25,921,1151.9531,254,1151.9531,254,597.9531" style="stroke: #000000; stroke-width: 1.5;"/><line style="stroke: #000000; stroke-width: 1.5;" x1="254" x2="405" y1="620.25" y2="620.25"/><text fill="#000000" font-family="sans-serif" font-size="14" font-weight="bold" lengthAdjust="spacingAndGlyphs" textLength="138" x="258" y="612.9482">EDT_Management</text><!--MD5=[122d47432440aea18b3ada34eb716e42]
cluster user_management--><polygon fill="#FFFFFF" filter="url(#f13xyqvgdmar6t)" points="274.5,1159.9531,425.5,1159.9531,432.5,1182.25,455.5,1182.25,455.5,1366.9531,274.5,1366.9531,274.5,1159.9531" style="stroke: #000000; stroke-width: 1.5;"/><line style="stroke: #000000; stroke-width: 1.5;" x1="274.5" x2="432.5" y1="1182.25" y2="1182.25"/><text fill="#000000" font-family="sans-serif" font-size="14" font-weight="bold" lengthAdjust="spacingAndGlyphs" textLength="145" x="278.5" y="1174.9482">user_management</text><ellipse cx="364.9767" cy="349.9768" fill="#FEFECE" filter="url(#f13xyqvgdmar6t)" rx="40.4767" ry="14.5236" style="stroke: #A80036; stroke-width: 1.5;"/><text fill="#000000" font-family="sans-serif" font-size="14" lengthAdjust="spacingAndGlyphs" textLength="53" x="338.4767" y="354.6252">register</text><ellipse cx="364.7548" cy="430.9768" fill="#FEFECE" filter="url(#f13xyqvgdmar6t)" rx="48.2548" ry="14.5236" style="stroke: #A80036; stroke-width: 1.5;"/><text fill="#000000" font-family="sans-serif" font-size="14" lengthAdjust="spacingAndGlyphs" textLength="64" x="332.7548" y="435.6252">validation</text><ellipse cx="365.1107" cy="496.7753" fill="#FEFECE" filter="url(#f13xyqvgdmar6t)" rx="67.1107" ry="15.8221" style="stroke: #A80036; stroke-width: 1.5;"/><text fill="#000000" font-family="sans-serif" font-size="14" lengthAdjust="spacingAndGlyphs" textLength="99" x="315.6107" y="501.4237">Delete a client</text><ellipse cx="364.85" cy="564.8231" fill="#FEFECE" filter="url(#f13xyqvgdmar6t)" rx="69.85" ry="16.37" style="stroke: #A80036; stroke-width: 1.5;"/><text fill="#000000" font-family="sans-serif" font-size="14" lengthAdjust="spacingAndGlyphs" textLength="106" x="311.85" y="569.4716">Add new admin</text><ellipse cx="365.2481" cy="187.8027" fill="#FEFECE" filter="url(#f13xyqvgdmar6t)" rx="102.2481" ry="22.8496" style="stroke: #A80036; stroke-width: 1.5;"/><text fill="#000000" font-family="sans-serif" font-size="14" lengthAdjust="spacingAndGlyphs" textLength="181" x="274.7481" y="192.4512">Add/Update/Delete rooms</text><ellipse cx="364.8371" cy="269.1205" fill="#FEFECE" filter="url(#f13xyqvgdmar6t)" rx="101.3371" ry="22.6674" style="stroke: #A80036; stroke-width: 1.5;"/><text fill="#000000" font-family="sans-serif" font-size="14" lengthAdjust="spacingAndGlyphs" textLength="179" x="275.3371" y="273.769">Add/Update/Delete topics</text><ellipse cx="365.0262" cy="642.9584" fill="#FEFECE" filter="url(#f13xyqvgdmar6t)" rx="78.0262" ry="18.0052" style="stroke: #A80036; stroke-width: 1.5;"/><text fill="#000000" font-family="sans-serif" font-size="14" lengthAdjust="spacingAndGlyphs" textLength="126" x="302.0262" y="647.6068">Create a schedule</text><ellipse cx="836.9264" cy="640.9768" fill="#FEFECE" filter="url(#f13xyqvgdmar6t)" rx="45.4264" ry="14.5236" style="stroke: #A80036; stroke-width: 1.5;"/><text fill="#000000" font-family="sans-serif" font-size="14" lengthAdjust="spacingAndGlyphs" textLength="60" x="806.9264" y="645.6252">manually</text><ellipse cx="836.8339" cy="776.0199" fill="#FEFECE" filter="url(#f13xyqvgdmar6t)" rx="63.3339" ry="15.0668" style="stroke: #A80036; stroke-width: 1.5;"/><text fill="#000000" font-family="sans-serif" font-size="14" lengthAdjust="spacingAndGlyphs" textLength="89" x="792.3339" y="780.6683">automatically</text><ellipse cx="365.2318" cy="951.1995" fill="#FEFECE" filter="url(#f13xyqvgdmar6t)" rx="89.2318" ry="20.2464" style="stroke: #A80036; stroke-width: 1.5;"/><text fill="#000000" font-family="sans-serif" font-size="14" lengthAdjust="spacingAndGlyphs" textLength="152" x="289.2318" y="955.8479">Invite ppl to a meeting</text><ellipse cx="365.1608" cy="872.9853" fill="#FEFECE" filter="url(#f13xyqvgdmar6t)" rx="103.1608" ry="23.0322" style="stroke: #A80036; stroke-width: 1.5;"/><text fill="#000000" font-family="sans-serif" font-size="14" lengthAdjust="spacingAndGlyphs" textLength="183" x="273.6608" y="877.6337">Book a room for a meeting</text><ellipse cx="364.9883" cy="715.0508" fill="#FEFECE" filter="url(#f13xyqvgdmar6t)" rx="80.9883" ry="18.5977" style="stroke: #A80036; stroke-width: 1.5;"/><text fill="#000000" font-family="sans-serif" font-size="14" lengthAdjust="spacingAndGlyphs" textLength="133" x="298.4883" y="719.6992">order equipements</text><ellipse cx="364.9264" cy="799.9768" fill="#FEFECE" filter="url(#f13xyqvgdmar6t)" rx="45.4264" ry="14.5236" style="stroke: #A80036; stroke-width: 1.5;"/><text fill="#000000" font-family="sans-serif" font-size="14" lengthAdjust="spacingAndGlyphs" textLength="60" x="334.9264" y="804.6252">payment</text><ellipse cx="836.9395" cy="708.041" fill="#FEFECE" filter="url(#f13xyqvgdmar6t)" rx="75.9395" ry="17.5879" style="stroke: #A80036; stroke-width: 1.5;"/><text fill="#000000" font-family="sans-serif" font-size="14" lengthAdjust="spacingAndGlyphs" textLength="121" x="776.4395" y="712.6895">validate demands</text><ellipse cx="364.8371" cy="1121.1205" fill="#FEFECE" filter="url(#f13xyqvgdmar6t)" rx="101.3371" ry="22.6674" style="stroke: #A80036; stroke-width: 1.5;"/><text fill="#000000" font-family="sans-serif" font-size="14" lengthAdjust="spacingAndGlyphs" textLength="179" x="275.3371" y="1125.769">Make reservation demand</text><ellipse cx="365.0567" cy="1042.9645" fill="#FEFECE" filter="url(#f13xyqvgdmar6t)" rx="90.5567" ry="20.5113" style="stroke: #A80036; stroke-width: 1.5;"/><text fill="#000000" font-family="sans-serif" font-size="14" lengthAdjust="spacingAndGlyphs" textLength="155" x="287.5567" y="1047.6129">Answer to an invitation</text><ellipse cx="364.8007" cy="1202.0133" fill="#FEFECE" filter="url(#f13xyqvgdmar6t)" rx="60.8007" ry="14.5601" style="stroke: #A80036; stroke-width: 1.5;"/><text fill="#000000" font-family="sans-serif" font-size="14" lengthAdjust="spacingAndGlyphs" textLength="82" x="323.8007" y="1206.6617">login/logout</text><ellipse cx="364.7526" cy="1268.8036" fill="#FEFECE" filter="url(#f13xyqvgdmar6t)" rx="72.2526" ry="16.8505" style="stroke: #A80036; stroke-width: 1.5;"/><text fill="#000000" font-family="sans-serif" font-size="14" lengthAdjust="spacingAndGlyphs" textLength="112" x="308.7526" y="1273.4521">Check schedule</text><ellipse cx="365.2005" cy="1339.8932" fill="#FEFECE" filter="url(#f13xyqvgdmar6t)" rx="82.7005" ry="18.9401" style="stroke: #A80036; stroke-width: 1.5;"/><text fill="#000000" font-family="sans-serif" font-size="14" lengthAdjust="spacingAndGlyphs" textLength="137" x="296.7005" y="1344.5417">See available rooms</text><!--MD5=[acb64d932532ebbc809d9a993fb5ccd9]
entity Visitor--><ellipse cx="127.5" cy="39.4531" fill="#FEFECE" filter="url(#f13xyqvgdmar6t)" rx="8" ry="8" style="stroke: #A80036; stroke-width: 2.0;"/><path d="M127.5,47.4531 L127.5,74.4531 M114.5,55.4531 L140.5,55.4531 M127.5,74.4531 L114.5,89.4531 M127.5,74.4531 L140.5,89.4531 " fill="none" filter="url(#f13xyqvgdmar6t)" style="stroke: #A80036; stroke-width: 2.0;"/><text fill="#000000" font-family="sans-serif" font-size="14" lengthAdjust="spacingAndGlyphs" textLength="42" x="106.5" y="109.4482">Visitor</text><!--MD5=[97ab183161fd5d1db7fba7485cf76add]
entity Admin--><ellipse cx="127.5" cy="499.4531" fill="#FEFECE" filter="url(#f13xyqvgdmar6t)" rx="8" ry="8" style="stroke: #A80036; stroke-width: 2.0;"/><path d="M127.5,507.4531 L127.5,534.4531 M114.5,515.4531 L140.5,515.4531 M127.5,534.4531 L114.5,549.4531 M127.5,534.4531 L140.5,549.4531 " fill="none" filter="url(#f13xyqvgdmar6t)" style="stroke: #A80036; stroke-width: 2.0;"/><text fill="#000000" font-family="sans-serif" font-size="14" lengthAdjust="spacingAndGlyphs" textLength="43" x="106" y="569.4482">Admin</text><!--MD5=[0ba5ee7700168656dc1b457c6fe9fdac]
entity Client--><ellipse cx="25.5" cy="1126.4531" fill="#FEFECE" filter="url(#f13xyqvgdmar6t)" rx="8" ry="8" style="stroke: #A80036; stroke-width: 2.0;"/><path d="M25.5,1134.4531 L25.5,1161.4531 M12.5,1142.4531 L38.5,1142.4531 M25.5,1161.4531 L12.5,1176.4531 M25.5,1161.4531 L38.5,1176.4531 " fill="none" filter="url(#f13xyqvgdmar6t)" style="stroke: #A80036; stroke-width: 2.0;"/><text fill="#000000" font-family="sans-serif" font-size="14" lengthAdjust="spacingAndGlyphs" textLength="39" x="6" y="1196.4482">Client</text><!--MD5=[9170eed8362bcf06e2e6aec51a03a144]
reverse link Client to Admin--><path d="M35.5319,1096.2866 C56.23,969.0541 103.1969,680.3455 120.7309,572.5632 " fill="none" id="Client&lt;-Admin" style="stroke: #A80036; stroke-width: 1.0;"/><polygon fill="none" points="42.3921,1097.7118,32.2715,1116.3283,28.5738,1095.4638,42.3921,1097.7118" style="stroke: #A80036; stroke-width: 1.0;"/><!--MD5=[f03136ee2ca7d528424df681eeb4774c]
link Visitor to register--><path d="M137.8458,112.4725 C153.0046,165.0484 186.165,255.1318 246,307.9531 C267.314,326.7687 297.5976,337.3009 322.2803,343.1128 " fill="none" id="Visitor-&gt;register" style="stroke: #A80036; stroke-width: 1.0;"/><polygon fill="#A80036" points="327.4571,344.2826,319.5602,338.3971,322.5801,343.1805,317.7968,346.2004,327.4571,344.2826" style="stroke: #A80036; stroke-width: 1.0;"/><!--MD5=[1e2dadbf3e00630e500cb594dd7b3740]
link register to validation--><path d="M365,364.7156 C365,377.703 365,396.7197 365,411.0491 " fill="none" id="register-&gt;validation" style="stroke: #A80036; stroke-width: 1.0; stroke-dasharray: 7.0,7.0;"/><polygon fill="#A80036" points="365,416.0965,369,407.0965,365,411.0965,361,407.0965,365,416.0965" style="stroke: #A80036; stroke-width: 1.0;"/><text fill="#000000" font-family="sans-serif" font-size="13" lengthAdjust="spacingAndGlyphs" textLength="45" x="331" y="395.02">include</text><!--MD5=[d49d78e5607d9e0b68c610c44275b972]
link Admin to validation--><path d="M149.1898,513.9745 C158.1592,507.3275 168.8254,499.8897 179,493.9531 C207.3395,477.4178 215.1563,474.1429 246,462.9531 C270.3061,454.1351 298.1854,446.5108 320.8465,440.9186 " fill="none" id="Admin-&gt;validation" style="stroke: #A80036; stroke-width: 1.0;"/><polygon fill="#A80036" points="325.8947,439.685,316.2024,437.936,321.0376,440.872,318.1016,445.7073,325.8947,439.685" style="stroke: #A80036; stroke-width: 1.0;"/><!--MD5=[1c66dba956176383f9dc7a198506a1fa]
link Admin to Delete a client--><path d="M149.4177,527.8154 C183.8344,522.8884 251.8282,513.1545 302.2964,505.9296 " fill="none" id="Admin-&gt;Delete a client" style="stroke: #A80036; stroke-width: 1.0;"/><polygon fill="#A80036" points="307.4321,505.1944,297.9561,502.5102,302.4826,505.903,299.0898,510.4295,307.4321,505.1944" style="stroke: #A80036; stroke-width: 1.0;"/><!--MD5=[e817450cd2ce8e2463ff81ece31d4393]
link Admin to Add new admin--><path d="M149.4177,534.0908 C183.2793,538.9383 249.6436,548.4389 299.841,555.6251 " fill="none" id="Admin-&gt;Add new admin" style="stroke: #A80036; stroke-width: 1.0;"/><polygon fill="#A80036" points="304.9536,556.357,296.6113,551.122,300.0041,555.6485,295.4776,559.0412,304.9536,556.357" style="stroke: #A80036; stroke-width: 1.0;"/><!--MD5=[726394136a1757ee7a8c472d1c0ef8fc]
link Admin to Add/Update/Delete rooms--><path d="M130.4038,489.3078 C137.5289,422.1988 162.0323,291.3592 246,228.9531 C258.7947,219.4439 273.961,212.0248 289.1083,206.2769 " fill="none" id="Admin-&gt;Add/Update/Delete rooms" style="stroke: #A80036; stroke-width: 1.0;"/><polygon fill="#A80036" points="293.8059,204.5462,283.978,203.9043,289.1142,206.2748,286.7437,211.411,293.8059,204.5462" style="stroke: #A80036; stroke-width: 1.0;"/><!--MD5=[0cc5000ac5904f43178c466174364524]
link Admin to Add/Update/Delete topics--><path d="M137.6071,489.2342 C152.4347,437.0755 185.1635,348.7308 246,299.9531 C254.7388,292.9465 264.8938,287.5098 275.5175,283.2937 " fill="none" id="Admin-&gt;Add/Update/Delete topics" style="stroke: #A80036; stroke-width: 1.0;"/><polygon fill="#A80036" points="280.4282,281.4412,270.5956,280.8755,275.75,283.2061,273.4194,288.3605,280.4282,281.4412" style="stroke: #A80036; stroke-width: 1.0;"/><!--MD5=[0f9fd45de8e324b6d850d50f34daa11b]
link Admin to Create a schedule--><path d="M149.2421,544.5857 C172.6125,558.918 211.1147,581.6124 246,597.9531 C268.5006,608.4927 294.2047,618.4588 315.9521,626.3202 " fill="none" id="Admin-&gt;Create a schedule" style="stroke: #A80036; stroke-width: 1.0;"/><polygon fill="#A80036" points="320.8154,628.0672,313.6975,621.2602,316.1098,626.377,310.993,628.7893,320.8154,628.0672" style="stroke: #A80036; stroke-width: 1.0;"/><!--MD5=[55b06aa80f4be3625860da3ab1217972]
reverse link Create a schedule to manually--><path d="M463.2673,642.1604 C485.0741,642.039 508.072,641.9531 529.5,641.9531 C529.5,641.9531 529.5,641.9531 699.5,641.9531 C730.1757,641.9531 764.7,641.7011 791.4802,641.4502 " fill="none" id="Create a schedule&lt;-manually" style="stroke: #A80036; stroke-width: 1.0;"/><polygon fill="none" points="463.2792,649.1604,443.2366,642.2833,463.1932,635.1607,463.2792,649.1604" style="stroke: #A80036; stroke-width: 1.0;"/><!--MD5=[ab1200fb1f40c802b501f8c17558a0a4]
reverse link Create a schedule to automatically--><path d="M438.1507,662.2597 C450.8271,666.8927 463.5885,672.4318 475,678.9531 C503.0241,694.968 497.2227,726.9531 529.5,726.9531 C529.5,726.9531 529.5,726.9531 699.5,726.9531 C720.8507,726.9531 773.6645,748.1814 807.2734,762.693 " fill="none" id="Create a schedule&lt;-automatically" style="stroke: #A80036; stroke-width: 1.0;"/><polygon fill="none" points="435.9134,668.8926,419.1634,655.9141,440.351,655.6145,435.9134,668.8926" style="stroke: #A80036; stroke-width: 1.0;"/><!--MD5=[6333691a9f74525882b85f13e288b5c7]
link Admin to Invite ppl to a meeting--><path d="M130.802,572.7433 C137.3269,648.3222 153.4892,804.3101 179,851.9531 C198.1515,887.7197 210.8735,893.6515 246,913.9531 C261.4955,922.9088 279.4022,929.9401 296.5439,935.3556 " fill="none" id="Admin-&gt;Invite ppl to a meeting" style="stroke: #A80036; stroke-width: 1.0;"/><polygon fill="#A80036" points="301.3559,936.8404,293.9356,930.3643,296.5782,935.366,291.5766,938.0086,301.3559,936.8404" style="stroke: #A80036; stroke-width: 1.0;"/><!--MD5=[4015343cbb2a731917accb5560829473]
link Admin to Book a room for a meeting--><path d="M130.3154,572.6934 C135.7108,640.8784 149.6721,772.0678 179,806.9531 C202.1173,834.4509 237.4967,850.4955 271.2171,859.856 " fill="none" id="Admin-&gt;Book a room for a meeting" style="stroke: #A80036; stroke-width: 1.0;"/><polygon fill="#A80036" points="276.1786,861.1891,268.525,854.9905,271.3499,859.8916,266.4489,862.7165,276.1786,861.1891" style="stroke: #A80036; stroke-width: 1.0;"/><!--MD5=[89501252219954803ee000740efa838c]
link order equipements to Book a room for a meeting--><path d="M298.5527,725.6646 C265.0859,734.7844 227.3792,751.5858 207,782.4531 C182.7101,819.2438 231.7748,842.8076 281.4802,856.6372 " fill="none" id="order equipements-&gt;Book a room for a meeting" style="stroke: #A80036; stroke-width: 1.0; stroke-dasharray: 7.0,7.0;"/><polygon fill="#A80036" points="286.6007,858.0277,278.9638,851.8085,281.7755,856.7171,276.8669,859.5288,286.6007,858.0277" style="stroke: #A80036; stroke-width: 1.0;"/><text fill="#000000" font-family="sans-serif" font-size="13" lengthAdjust="spacingAndGlyphs" textLength="51" x="180" y="795.52">extends</text><!--MD5=[fc36901cab4c00f4f5ba44f00d0d1111]
link payment to order equipements--><path d="M365,785.1472 C365,772.4386 365,753.8781 365,739.0343 " fill="none" id="payment-&gt;order equipements" style="stroke: #A80036; stroke-width: 1.0; stroke-dasharray: 7.0,7.0;"/><polygon fill="#A80036" points="365,733.7514,361,742.7514,365,738.7514,369,742.7514,365,733.7514" style="stroke: #A80036; stroke-width: 1.0;"/><text fill="#000000" font-family="sans-serif" font-size="13" lengthAdjust="spacingAndGlyphs" textLength="45" x="331" y="764.02">include</text><!--MD5=[af981258e4d608e8fb24bfb322cb0073]
link Admin to validate demands--><path d="M130.8406,489.1576 C136.2572,433.5798 149.4861,332.9405 179,251.9531 C199.6496,195.2898 196.8671,168.9259 246,133.9531 C289.8182,102.7633 311.2149,111.9531 365,111.9531 C365,111.9531 365,111.9531 699.5,111.9531 C824.9135,111.9531 687.7016,571.1891 761,672.9531 C766.7307,680.9094 774.7232,687.1033 783.3861,691.911 " fill="none" id="Admin-&gt;validate demands" style="stroke: #A80036; stroke-width: 1.0;"/><polygon fill="#A80036" points="788.2578,694.4418,782.1152,686.7432,783.8208,692.1368,778.4272,693.8424,788.2578,694.4418" style="stroke: #A80036; stroke-width: 1.0;"/><!--MD5=[47a95bd59076a4dad0fd85f8efb5b427]
link Client to Make reservation demand--><path d="M45.2204,1155.8039 C87.8025,1151.1631 190.7777,1139.9405 268.4553,1131.4749 " fill="none" id="Client-&gt;Make reservation demand" style="stroke: #A80036; stroke-width: 1.0;"/><polygon fill="#A80036" points="273.5343,1130.9214,264.1538,1127.9203,268.5637,1131.4633,265.0208,1135.8732,273.5343,1130.9214" style="stroke: #A80036; stroke-width: 1.0;"/><!--MD5=[e471c364c735d7e6ad24ac1a0c7b3f8e]
link Make reservation demand to validate demands--><path d="M435.2541,1104.5695 C449.5727,1098.8396 463.695,1091.1742 475,1080.9531 C516.3599,1043.5586 473.7417,967.9531 529.5,967.9531 C529.5,967.9531 529.5,967.9531 699.5,967.9531 C803.1683,967.9531 693.9759,822.0409 761,742.9531 C767.6182,735.1437 776.3515,728.9816 785.5341,724.1517 " fill="none" id="Make reservation demand-&gt;validate demands" style="stroke: #A80036; stroke-width: 1.0; stroke-dasharray: 7.0,7.0;"/><polygon fill="#A80036" points="790.0707,721.8862,780.2318,722.3285,785.5975,724.1201,783.8059,729.4857,790.0707,721.8862" style="stroke: #A80036; stroke-width: 1.0;"/><text fill="#000000" font-family="sans-serif" font-size="13" lengthAdjust="spacingAndGlyphs" textLength="45" x="592" y="964.02">include</text><!--MD5=[ad80f16fa7abfe94faa144ce2052657b]
link Client to Answer to an invitation--><path d="M45.4357,1143.1424 C54.1706,1137.1707 64.7511,1130.6079 75,1125.9531 C145.7258,1093.8312 231.8516,1071.0682 291.7873,1057.6028 " fill="none" id="Client-&gt;Answer to an invitation" style="stroke: #A80036; stroke-width: 1.0;"/><polygon fill="#A80036" points="296.7791,1056.4892,287.1241,1054.5448,291.8991,1057.5779,288.866,1062.3529,296.7791,1056.4892" style="stroke: #A80036; stroke-width: 1.0;"/><!--MD5=[552d422a67e150d17b9175685aecd31a]
link Answer to an invitation to Invite ppl to a meeting--><path d="M365,1022.0769 C365,1008.4784 365,990.6545 365,976.2518 " fill="none" id="Answer to an invitation-&gt;Invite ppl to a meeting" style="stroke: #A80036; stroke-width: 1.0; stroke-dasharray: 7.0,7.0;"/><polygon fill="#A80036" points="365,971.1144,361,980.1144,365,976.1144,369,980.1144,365,971.1144" style="stroke: #A80036; stroke-width: 1.0;"/><text fill="#000000" font-family="sans-serif" font-size="13" lengthAdjust="spacingAndGlyphs" textLength="45" x="331" y="1001.27">include</text><!--MD5=[8990646918ae7fa9a8f4d41e49b072c2]
link Client to login/logout--><path d="M45.2204,1160.5089 C95.2111,1166.9878 228.4378,1184.2543 306.2507,1194.3391 " fill="none" id="Client-&gt;login/logout" style="stroke: #A80036; stroke-width: 1.0;"/><polygon fill="#A80036" points="311.2945,1194.9927,302.8833,1189.869,306.336,1194.35,301.855,1197.8027,311.2945,1194.9927" style="stroke: #A80036; stroke-width: 1.0;"/><!--MD5=[4e08ab7dc50b9f0862afb15e2bddfe11]
link Client to Check schedule--><path d="M45.1644,1165.0707 C83.5778,1178.8988 171.3598,1210.1272 246,1233.9531 C268.0311,1240.9856 292.5195,1248.2771 313.5265,1254.3727 " fill="none" id="Client-&gt;Check schedule" style="stroke: #A80036; stroke-width: 1.0;"/><polygon fill="#A80036" points="318.5087,1255.8149,310.9761,1249.4699,313.7059,1254.4245,308.7513,1257.1543,318.5087,1255.8149" style="stroke: #A80036; stroke-width: 1.0;"/><!--MD5=[174a70f0760cb7a598e043ddbdb16e36]
link Client to See available rooms--><path d="M45.2849,1173.9657 C82.5164,1203.4118 166.4267,1266.5584 246,1303.9531 C263.6775,1312.2605 283.7268,1319.193 302.2623,1324.6847 " fill="none" id="Client-&gt;See available rooms" style="stroke: #A80036; stroke-width: 1.0;"/><polygon fill="#A80036" points="307.4468,1326.1954,299.9251,1319.8375,302.6464,1324.7967,297.6872,1327.5181,307.4468,1326.1954" style="stroke: #A80036; stroke-width: 1.0;"/><!--MD5=[1db605739116c4483717ce0d9ebfa43a]
@startuml
title Sched it'Easy
actor Visitor
actor Admin
actor Client
Client <|- - Admin

left to right direction

rectangle ScheditEasy {

package account_management { 
Visitor - -> (register)
(register) .> (validation) : include
Admin - ->(validation)
Admin - -> (Delete a client)
Admin - ->(Add new admin)
}

package room_management { 
Admin - ->(Add/Update/Delete rooms)
Admin - -> (Add/Update/Delete topics)
}

package EDT_Management{
Admin - ->(Create a schedule)
(Create a schedule) <|- - (manually)
(Create a schedule) <|- - (automatically)
Admin - ->(Invite ppl to a meeting)
Admin - ->(Book a room for a meeting)
(order equipements) .> (Book a room for a meeting) : extends
(payment) .> (order equipements) : include
Admin - ->(validate demands)
Client - ->(Make reservation demand)
(Make reservation demand) .down.> (validate demands) : include
Client - ->(Answer to an invitation)
(Answer to an invitation) .> (Invite ppl to a meeting) : include
}

package user_management {
Client - -> (login/logout)
Client - -> (Check schedule)
Client - ->(See available rooms)
}

}
@enduml

PlantUML version 1.2019.12(Sun Nov 03 10:24:54 UTC 2019)
(GPL source distribution)
Java Runtime: OpenJDK Runtime Environment
JVM: OpenJDK 64-Bit Server VM
Java Version: 1.8.0_232-heroku-b09
Operating System: Linux
Default Encoding: UTF-8
Language: en
Country: US
--></g></svg>